<svg version="1.1" xmlns="http://www.w3.org/2000/svg" xmlns:xlink="http://www.w3.org/1999/xlink" width="39.9333" height="39.60994" viewBox="0,0,39.9333,39.60994"><g transform="translate(-220.03336,-160.19503)"><g data-paper-data="{&quot;isPaintingLayer&quot;:true}" fill-rule="nonzero" stroke="#000000" stroke-width="0" stroke-linecap="butt" stroke-linejoin="miter" stroke-miterlimit="10" stroke-dasharray="" stroke-dashoffset="0" style="mix-blend-mode: normal"><g><path d="M220.03337,191.99121c0,-7.86784 0,-19.46112 0,-23.92764c0,-3.50206 4.23318,-7.86854 7.67083,-7.86854c4.46859,0 16.23406,0 24.25098,0c4.63121,0 8.01148,4.36649 8.01148,7.86854c0,4.43603 0,15.90182 0,23.76597c0,4.60528 -4.34849,7.97543 -7.84981,7.97543c-4.50876,0 -16.29069,0 -24.25099,0c-4.53696,0 -7.83249,-3.29149 -7.83249,-7.81375z" fill="#66bb70"/><path d="M220.03336,191.89001c0,-3.52671 0,-11.84835 0,-11.84835c0,0 13.33206,5.58333 20.00831,5.58333c6.63458,0 19.92498,-5.58333 19.92498,-5.58333c0,0 0,8.19144 0,11.68668c0,4.60528 -4.34849,7.97543 -7.84981,7.97543c-4.50876,0 -16.29069,0 -24.25099,0c-4.53696,0 -7.83249,-3.29149 -7.83249,-7.81375z" fill="#24ba36"/></g><path d="M234.12604,179.99999c0,2.22811 -1.84729,4.03435 -4.12604,4.03435c-2.27874,0 -4.12604,-1.80624 -4.12604,-4.03435c0,-2.22811 1.84729,-4.03435 4.12604,-4.03435c2.27874,0 4.12604,1.80624 4.12604,4.03435z" fill="#f3e0ff"/><path d="M254.12604,179.99999c0,2.22811 -1.84729,4.03435 -4.12604,4.03435c-2.27874,0 -4.12604,-1.80624 -4.12604,-4.03435c0,-2.22811 1.84729,-4.03435 4.12604,-4.03435c2.27874,0 4.12604,1.80624 4.12604,4.03435z" fill="#f3e0ff"/></g></g></svg>